<svg xmlns="http://www.w3.org/2000/svg" width="1926.5" height="1892.565" viewBox="0 0 1926.5 1892.565">
  <path id="Path_39" data-name="Path 39" d="M1396.787,515.94V194.618c0-29.949,18.592-49.865,37.453-59.347l7.624-3.835c22.5-11.314,50.707-6.685,68.576,10.869l21.406,21.029c14.547,14.291,34.886,21.378,55.43,22.544,133.032,0,133.032-196.039,0-196.039m-1061.3,526.09v-321.3c0-29.949-18.592-49.865-37.453-59.347l-7.624-3.835c-22.5-11.314-50.706-6.685-68.576,10.869l-21.406,21.029c-14.548,14.291-34.9,21.378-55.43,22.544-133.032,0-133.032-196.039,0-196.039M1916.156,1168.394c0-130.7-199.558-130.7-199.558,0,1.186,20.171,8.412,40.151,22.949,54.442l21.406,21.029c17.869,17.554,22.582,45.267,11.064,67.377l-3.9,7.479c-9.652,18.539-29.926,36.8-60.412,36.8l-327.079-.01m535.534-668.323c0,130.686-199.558,130.686-199.558,0,1.186-20.171,8.412-40.161,22.949-54.452l21.406-21.029c17.869-17.554,22.582-45.267,11.064-67.366l-3.9-7.49c-9.652-18.529-29.926-36.8-60.412-36.792H1380.622M1587.265,1880.9c133.043,0,133.043-196.039,0-196.039-17.589,0-43.028,10.382-55.419,22.544l-21.406,21.029c-17.859,17.543-46.091,22.183-68.586,10.88l-7.614-3.835c-22.5-11.325-37.464-34.515-37.464-59.347v-363.39l.011-277.855c0-24.832-15.389-47.227-37.453-59.347l-7.624-3.824a63.738,63.738,0,0,0-68.586,10.869l-21.4,21.029c-12.337,12.2-37.83,22.544-55.43,22.544-133.031,0-133.031-196.039,0-196.039a92.17,92.17,0,0,1,55.43,22.544l21.406,21.029a63.539,63.539,0,0,0,68.575,10.869l7.624-3.835c13.879-15.732,37.453-29.4,37.453-59.347V500.07M335.49,1880.882c-133.032,0-133.032-196.039,0-196.039,17.6,0,43.05,10.382,55.43,22.544l21.406,21.029c17.858,17.543,46.091,22.183,68.576,10.88l7.624-3.835c22.5-11.325,37.464-34.515,37.464-59.347l-.011-363.39V1034.879c0-24.832,14.957-48.022,37.453-59.347l7.624-3.824c22.485-11.314,50.717-6.674,68.576,10.869l21.406,21.029c12.38,12.162,37.83,22.543,55.43,22.543,133.032,0,133.032-196.039,0-196.039-20.544,1.165-40.882,8.263-55.43,22.544l-21.406,21.029c-17.869,17.554-46.08,22.184-68.586,10.869l-7.614-3.835c-18.872-9.482-37.464-29.4-37.464-59.347V500.06M1396.776,1355.5H1069.708c-30.486,0-50.76,18.264-60.412,36.792l-3.9,7.49c-11.517,22.1-6.8,49.812,11.064,67.366l21.406,21.029c14.548,14.291,21.762,34.282,22.948,54.452,0,130.686-199.558,130.686-199.558,0,0-17.289,10.568-42.291,22.948-54.452l21.406-21.029c17.858-17.543,22.582-45.278,11.064-67.366l-3.893-7.49c-11.528-22.1-35.134-36.8-60.412-36.792H199.611A68.961,68.961,0,0,1,139.2,1318.71l-3.9-7.49c-11.507-22.088-6.794-49.823,11.075-67.366l21.406-21.029c12.38-12.162,22.948-37.163,22.948-54.452,0-130.686-199.558-130.686-199.558,0m1405.62-668.323H1069.7c-30.486,0-50.76-18.264-60.412-36.792l-3.9-7.49c-11.517-22.1-6.8-49.812,11.064-67.366l21.406-21.029c14.548-14.291,21.762-34.271,22.948-54.452,0-130.686-199.547-130.686-199.547.011,0,17.289,10.536,42.312,22.948,54.452,7.15,6.992,14.483,13.825,21.406,21.029a60.322,60.322,0,0,1,11.064,67.377c-1.186,2.542-2.513,5.021-3.893,7.479-12.272,21.707-35.145,36.782-60.423,36.782H199.6a68.961,68.961,0,0,0-60.412,36.793c-1.294,2.5-2.588,4.99-3.9,7.49-11.507,22.088-6.794,49.823,11.075,67.377l21.406,21.018c12.38,12.162,22.948,37.163,22.948,54.452-.011,130.686-199.558,130.686-199.558,0" transform="translate(9.594 10.911)" fill="#347EB8" stroke="#F5F5F5" stroke-width="0.2"/>
</svg>
