<svg xmlns="http://www.w3.org/2000/svg" width="28" height="28" viewBox="0 0 28 28">
  <g id="Icon_feather-instagram" data-name="Icon feather-instagram" transform="translate(-1.5 -1.5)">
    <path id="Path_3" data-name="Path 3" d="M9.25,3h12.5A6.25,6.25,0,0,1,28,9.25v12.5A6.25,6.25,0,0,1,21.75,28H9.25A6.25,6.25,0,0,1,3,21.75V9.25A6.25,6.25,0,0,1,9.25,3Z" fill="none" stroke="#fff" stroke-linecap="round" stroke-linejoin="round" stroke-width="3"/>
    <path id="Path_4" data-name="Path 4" d="M24,17.055A6,6,0,1,1,18.945,12,6,6,0,0,1,24,17.055Z" transform="translate(-2.518 -2.482)" fill="none" stroke="#fff" stroke-linecap="round" stroke-linejoin="round" stroke-width="3"/>
    <path id="Path_5" data-name="Path 5" d="M26.25,9.75h0" transform="translate(-3.875 -1.125)" fill="none" stroke="#fff" stroke-linecap="round" stroke-linejoin="round" stroke-width="3"/>
  </g>
</svg>
