<svg xmlns="http://www.w3.org/2000/svg" width="34.141" height="40.343" viewBox="0 0 34.141 40.343">
  <path id="Icon_simple-opsgenie" data-name="Icon simple-opsgenie" d="M19.395,0A9.809,9.809,0,1,1,9.586,9.809,9.808,9.808,0,0,1,19.395,0ZM35.323,21.339h-.049l-7.416-3.673a1.1,1.1,0,0,0-1.435.439,36.708,36.708,0,0,1-7.054,8.546,36.706,36.706,0,0,1-7.021-8.518,1.1,1.1,0,0,0-1.435-.441L3.483,21.339H3.434a1.1,1.1,0,0,0-.406,1.478,47.261,47.261,0,0,0,7.454,9.719l0,0c.039.041.082.079.123.118.549.549,1.107,1.088,1.682,1.607.133.121.27.236.4.355.516.455,1.035.909,1.573,1.343.236.192.483.372.722.559.454.354.9.711,1.371,1.047.721.521,1.455,1.024,2.2,1.5a1.578,1.578,0,0,0,1.65.028q1.2-.767,2.339-1.605c.111-.082.216-.169.328-.251.586-.436,1.168-.88,1.736-1.343.383-.311.754-.639,1.127-.963.278-.241.557-.477.829-.724.483-.439.95-.893,1.415-1.351.1-.1.208-.193.308-.293l-.007,0a47.264,47.264,0,0,0,7.478-9.745,1.1,1.1,0,0,0-.441-1.478Z" transform="translate(-2.321 0.5)" fill="#57bce6" stroke="#347eb8" stroke-width="1"/>
</svg>
