<svg xmlns="http://www.w3.org/2000/svg" width="39" height="30" viewBox="0 0 39 30">
  <path id="Icon_awesome-store-alt" data-name="Icon awesome-store-alt" d="M19.5,22.5H7.8V13.125H3.9v15A1.912,1.912,0,0,0,5.851,30h15.6a1.912,1.912,0,0,0,1.95-1.875v-15H19.5ZM38.675,8.332l-5.2-7.5A1.983,1.983,0,0,0,31.849,0H7.155A1.964,1.964,0,0,0,5.534.832l-5.2,7.5A1.873,1.873,0,0,0,1.957,11.25h35.1A1.877,1.877,0,0,0,38.675,8.332ZM31.2,29.063a.96.96,0,0,0,.975.938h1.95a.96.96,0,0,0,.975-.937V13.125H31.2Z" transform="translate(-0.004)" fill="#57bce6"/>
</svg>
