<svg xmlns="http://www.w3.org/2000/svg" width="39" height="30" viewBox="0 0 39 30">
  <path id="Icon_awesome-user-check" data-name="Icon awesome-user-check" d="M13.65,15a7.654,7.654,0,0,0,7.8-7.5A7.654,7.654,0,0,0,13.65,0a7.654,7.654,0,0,0-7.8,7.5A7.654,7.654,0,0,0,13.65,15Zm5.46,1.875H18.092a10.994,10.994,0,0,1-8.885,0H8.19A8.039,8.039,0,0,0,0,24.75v2.438A2.871,2.871,0,0,0,2.925,30h21.45A2.871,2.871,0,0,0,27.3,27.188V24.75A8.039,8.039,0,0,0,19.11,16.875ZM38.793,9.352,37.1,7.705A.743.743,0,0,0,36.075,7.7l-6.386,6.094-2.773-2.684a.743.743,0,0,0-1.024-.006L24.18,12.738a.676.676,0,0,0-.006.984l4.979,4.822a.743.743,0,0,0,1.024.006l8.61-8.215a.681.681,0,0,0,.006-.984Z" fill="#57bce6"/>
</svg>
