<svg xmlns="http://www.w3.org/2000/svg" width="34.176" height="34.186" viewBox="0 0 34.176 34.186">
  <path id="Icon_ionic-ios-settings" data-name="Icon ionic-ios-settings" d="M34.776,21A4.247,4.247,0,0,1,37.5,17.038a16.832,16.832,0,0,0-2.037-4.907,4.3,4.3,0,0,1-1.727.37A4.237,4.237,0,0,1,29.86,6.537a16.781,16.781,0,0,0-4.9-2.037,4.243,4.243,0,0,1-7.923,0,16.832,16.832,0,0,0-4.907,2.037A4.237,4.237,0,0,1,8.255,12.5a4.163,4.163,0,0,1-1.727-.37A17.2,17.2,0,0,0,4.5,17.047a4.245,4.245,0,0,1,.009,7.923,16.832,16.832,0,0,0,2.037,4.907,4.239,4.239,0,0,1,5.595,5.595,16.93,16.93,0,0,0,4.907,2.037,4.235,4.235,0,0,1,7.906,0,16.832,16.832,0,0,0,4.907-2.037,4.243,4.243,0,0,1,5.595-5.595,16.93,16.93,0,0,0,2.037-4.907A4.267,4.267,0,0,1,34.776,21Zm-13.7,6.866a6.875,6.875,0,1,1,6.875-6.875A6.873,6.873,0,0,1,21.077,27.866Z" transform="translate(-3.912 -3.912)" fill="#57bce6" stroke="#347eb8" stroke-width="1"/>
</svg>
