<svg xmlns="http://www.w3.org/2000/svg" width="39" height="30" viewBox="0 0 39 30">
  <path id="Icon_awesome-handshake" data-name="Icon awesome-handshake" d="M26.49,4.5H21.255a1.739,1.739,0,0,0-1.316.656l-5.99,7.029c-.006.008-.012.023-.018.031a3.753,3.753,0,0,0-.128,4.373,2.154,2.154,0,0,0,3.419.211c.006-.008.018-.008.024-.016l4.869-5.717a.836.836,0,0,1,1.377.078,1.506,1.506,0,0,1-.061,1.765l-1.59,1.867,8.872,9.231a5.154,5.154,0,0,1,.481.6V9.5L27.867,5.234A1.753,1.753,0,0,0,26.49,4.5Zm6.66,5.014V27a2.274,2.274,0,0,0,1.95,2.5H39V9.514ZM36.075,27a1.288,1.288,0,1,1,.975-1.25A1.142,1.142,0,0,1,36.075,27ZM0,29.491H3.9a2.274,2.274,0,0,0,1.95-2.5V9.514H0ZM2.925,24.5a1.288,1.288,0,0,1,0,2.5,1.288,1.288,0,0,1,0-2.5Zm26.563,1.453-9.1-9.465-1.828,2.148a3.754,3.754,0,0,1-6.2-.344,6.791,6.791,0,0,1,.268-7.942L17.617,4.5H12.51a1.762,1.762,0,0,0-1.377.734L7.8,9.5V26.984H8.915l5.515,6.4c1.67,1.742,4.125,1.414,5.484-.726l.012-.016,1.091,1.21a1.947,1.947,0,0,0,3.187-.422l1.913-3.015.329.344a1.674,1.674,0,0,0,2.742-.367l.579-.914a3.008,3.008,0,0,0-.28-3.522Z" transform="translate(0 -4.5)" fill="#57bce6"/>
</svg>
