<svg xmlns="http://www.w3.org/2000/svg" xmlns:xlink="http://www.w3.org/1999/xlink" width="1507" height="1108" viewBox="0 0 1507 1108">
  <defs>
    <clipPath id="clip-path">
      <rect id="Rectangle_173" data-name="Rectangle 173" width="1507" height="1108" fill="#fff"/>
    </clipPath>
  </defs>
  <g id="Mask_Group_31" data-name="Mask Group 31" clip-path="url(#clip-path)">
    <g id="Group_32" data-name="Group 32" transform="translate(0 -32.889)">
      <rect id="Rectangle_174" data-name="Rectangle 174" width="16" height="417" rx="8" transform="translate(377 -0.11)" fill="#57bce6" opacity="0.45"/>
      <rect id="Rectangle_175" data-name="Rectangle 175" width="7" height="208" rx="3.5" transform="translate(417 -0.11)" fill="#57bce6" opacity="0.45"/>
      <rect id="Rectangle_176" data-name="Rectangle 176" width="7" height="208" rx="3.5" transform="translate(346 -0.11)" fill="#57bce6" opacity="0.45"/>
      <rect id="Rectangle_177" data-name="Rectangle 177" width="16" height="417" rx="8" transform="translate(1438 339.89)" fill="#57bce6" opacity="0.45"/>
      <rect id="Rectangle_184" data-name="Rectangle 184" width="18" height="416" rx="9" transform="translate(557 724.89)" fill="#57bce6" opacity="0.45"/>
      <rect id="Rectangle_185" data-name="Rectangle 185" width="14" height="104" rx="7" transform="translate(0 619.89) rotate(-90)" fill="#57bce6" opacity="0.45"/>
      <rect id="Rectangle_180" data-name="Rectangle 180" width="15" height="362" rx="7.5" transform="translate(1037 394.89)" fill="#57bce6" opacity="0.45"/>
      <rect id="Rectangle_178" data-name="Rectangle 178" width="7" height="209" rx="3.5" transform="translate(1478 339.89)" fill="#347eb8" opacity="0.45"/>
      <rect id="Rectangle_183" data-name="Rectangle 183" width="6" height="208" rx="3" transform="translate(584 724.89)" fill="#347eb8" opacity="0.45"/>
      <rect id="Rectangle_186" data-name="Rectangle 186" width="7" height="104" rx="3.5" transform="translate(0 593.89) rotate(-90)" fill="#347eb8" opacity="0.45"/>
      <rect id="Rectangle_182" data-name="Rectangle 182" width="6" height="209" rx="3" transform="translate(1076 339.89)" fill="#57bce6" opacity="0.45"/>
      <rect id="Rectangle_179" data-name="Rectangle 179" width="7" height="209" rx="3.5" transform="translate(1407 339.89)" fill="#57bce6" opacity="0.45"/>
      <rect id="Rectangle_181" data-name="Rectangle 181" width="7" height="209" rx="3.5" transform="translate(1004 339.89)" fill="#347eb8" opacity="0.45"/>
    </g>
  </g>
</svg>
